<svg width="32" height="32" viewBox="0 0 32 32" fill="none" xmlns="http://www.w3.org/2000/svg">
    <g clip-path="url(#clip0_1_142)">
        <rect width="32" height="32" transform="translate(32 32) rotate(-180)" fill="#BFBFBF" />
        <path d="M32 4L28 4L32 0L32 4Z" fill="#818181" />
        <path d="M32 28L28 28L32 32L32 28Z" fill="#818181" />
        <rect x="32" y="28" width="4" height="24" transform="rotate(-180 32 28)" fill="#818181" />
        <path d="M28 32L28 28L32 32L28 32Z" fill="#818181" />
        <path d="M4 32L4 28L0 32L4 32Z" fill="#818181" />
        <rect x="4" y="32" width="4" height="24" transform="rotate(-90 4 32)" fill="#818181" />
        <path d="M0 28L4 28L-4.48042e-07 32L0 28Z" fill="white" />
        <path d="M0 4L4 4L4.48042e-07 0L0 4Z" fill="white" />
        <rect y="4" width="4" height="24" fill="white" />
        <path d="M4 0L4 4L0 -3.00516e-07L4 0Z" fill="white" />
        <path d="M28 0L28 4L32 3.00516e-07L28 0Z" fill="white" />
        <rect x="28" width="4" height="24" transform="rotate(90 28 0)" fill="white" />
    </g>
    <defs>
        <clipPath id="clip0_1_142">
            <rect width="32" height="32" fill="white" />
        </clipPath>
    </defs>
</svg>